{"title":"Sia ft. Maddie Ziegler - Big Girls Cry (2015.Electropop)","uid":11794670,"size":82633223,"categoryP":"video","categoryS":"music_videos","magnet":"?xt=urn:btih:39e7ab75665a46105adacc3d8987f375c67a949b&amp;dn=Sia+ft.+Maddie+Ziegler+-+Big+Girls+Cry+%282015.Electropop%29&amp;tr=udp%3A%2F%2Ftracker.openbittorrent.com%3A80&amp;tr=udp%3A%2F%2Fopen.demonii.com%3A1337&amp;tr=udp%3A%2F%2Ftracker.coppersurfer.tk%3A6969&amp;tr=udp%3A%2F%2Fexodus.desync.com%3A6969","seeders":8,"leechers":1,"uploader":"MeRaDil","files":1,"time":1428085423,"description":"SIA ft.MADDIE ZIEGLER - BIG GIRLS CRY\n\n &lt;a href=&quot;\nhttp://gifyu.com/images/BGC.png&quot; rel=&quot;nofollow&quot; target=&quot;_NEW&quot;&gt;\nhttp://gifyu.com/images/BGC.png&lt;/a&gt;\n\nGeneral\nSia - Big Girls Cry\nFormat                      : MPEG-4\nFormat profile              : Base Media\nCodec ID                    : isom\nFile size                   : 78.8 MiB\nDuration                    : 3mn 37s\nOverall bit rate            : 3 046 Kbps\nMusicVid name               : Big Girls Cry\nAlbum                       : 1000 Forms of Fear\nPerformer                   : Sia\nGenre                       : Electropop\nContentType                 : Music Video\nRecorded date               : 2015\nCopyright                   : Sia\nCover                       : Yes\nComment                     : Maddie Ziegler\nMake                        : MeRaDil\nRelease                     : Australia/USA - april 2 - 2015\nPart_ID                     : Big Girls Cry\n\nVideo\nID                          : 1\nFormat                      : AVC\nFormat/Info                 : Advanced Video Codec\nFormat profile              : &lt;a class=&quot;__cf_email__&quot; href=&quot;/cdn-cgi/l/email-protection&quot; data-cfemail=&quot;dd95b4bab59d91e9f3ed&quot;&gt;[email&amp;#160;protected]&lt;/a&gt;&lt;script cf-hash='f9e31' type=&quot;text/javascript&quot;&gt;\n/* &lt;![CDATA[ */!function(){try{var t=&quot;currentScript&quot;in document?document.currentScript:function(){for(var t=document.getElementsByTagName(&quot;script&quot;),e=t.length;e--;)if(t[e].getAttribute(&quot;cf-hash&quot;))return t[e]}();if(t&amp;&amp;t.previousSibling){var e,r,n,i,c=t.previousSibling,a=c.getAttribute(&quot;data-cfemail&quot;);if(a){for(e=&quot;&quot;,r=parseInt(a.substr(0,2),16),n=2;a.length-n;n+=2)i=parseInt(a.substr(n,2),16)^r,e+=String.fromCharCode(i);e=document.createTextNode(e),c.parentNode.replaceChild(e,c)}}}catch(u){}}();/* ]]&gt; */&lt;/script&gt;\nFormat settings, CABAC      : Yes\nFormat settings, ReFrames   : 2 frames\nCodec ID                    : avc1\nCodec ID/Info               : Advanced Video Coding\nDuration                    : 3mn 36s\nBit rate                    : 2 784 Kbps\nWidth                       : 1 920 pixels\nHeight                      : 1 080 pixels\nDisplay aspect ratio        : 16:9\nFrame rate mode             : Variable\nFrame rate                  : 23.976 fps\nMinimum frame rate          : 23.974 fps\nMaximum frame rate          : 23.981 fps\nColor space                 : YUV\nChroma subsampling          : 4:2:0\nBit depth                   : 8 bits\nScan type                   : Progressive\nBits/(Pixel*Frame)          : 0.056\nStream size                 : 72.0 MiB (91%)\n\nAudio\nID                          : 2\nFormat                      : AAC\nFormat/Info                 : Advanced Audio Codec\nFormat profile              : LC\nCodec ID                    : 40\nDuration                    : 3mn 37s\nBit rate mode               : Constant\nBit rate                    : 256 Kbps\nChannel(s)                  : 2 channels\nChannel positions           : Front: L R\nSampling rate               : 44.1 KHz\nCompression mode            : Lossy\nStream size                 : 6.62 MiB (8%)\n\nSia * Maddie Ziegler * Promo * Electropop","torrent":{"xt":"urn:btih:39e7ab75665a46105adacc3d8987f375c67a949b","amp;dn":"Sia+ft.+Maddie+Ziegler+-+Big+Girls+Cry+%282015.Electropop%29","amp;tr":["udp%3A%2F%2Ftracker.openbittorrent.com%3A80","udp%3A%2F%2Fopen.demonii.com%3A1337","udp%3A%2F%2Ftracker.coppersurfer.tk%3A6969","udp%3A%2F%2Fexodus.desync.com%3A6969"],"infoHash":"39e7ab75665a46105adacc3d8987f375c67a949b","infoHashBuffer":{"type":"Buffer","data":[57,231,171,117,102,90,70,16,90,218,204,61,137,135,243,117,198,122,148,155]},"announce":[],"urlList":[]}}